<svg xmlns="http://www.w3.org/2000/svg" width="1550" height="593" viewBox="0 0 1550 593" fill="none">
<rect x="1202.5" y="317.962" width="304.373" height="226.845" rx="47.5" fill="#14181C" stroke="#79A9EC" stroke-width="5"/>
<path d="M1315.82 570.064L1489.37 394.447L1474.02 379.833L1301.65 552.205L1298.82 549.376L1471.13 377.074L1467.32 373.456L1292.83 547.262C1291.86 548.231 1291.19 549.465 1290.92 550.81L1287.65 566.678C1286.65 571.532 1290.87 575.858 1295.75 574.979L1312.09 572.032C1313.51 571.777 1314.81 571.089 1315.82 570.064ZM1476.85 377.004L1492.24 391.649L1525.61 360.217L1509.62 344.233L1476.85 377.004ZM1528.48 357.432L1542.22 343.689C1544.96 340.956 1544.96 336.524 1542.22 333.79L1529.73 321.298L1529.21 320.778C1526.48 318.044 1522.04 318.045 1519.31 320.778L1505.57 334.52L1511.04 339.99L1528.48 357.432ZM1502.75 337.363L1470.14 370.616L1473.95 374.245L1506.8 341.404L1502.75 337.363Z" fill="#14181C" stroke="#79A9EC" stroke-width="4"/>
<path d="M1237.66 350.903L1275.63 368.593C1279.4 370.351 1279.5 375.684 1275.79 377.578L1237.66 397.051" stroke="#79A9EC" stroke-width="6"/>
<rect x="802.5" y="317.962" width="304.373" height="226.845" rx="47.5" fill="#14181C" stroke="#D9480F" stroke-width="5"/>
<path d="M915.824 570.064L1089.37 394.447L1074.02 379.833L901.652 552.205L898.823 549.376L1071.13 377.074L1067.32 373.456L892.834 547.262C891.861 548.231 891.195 549.465 890.918 550.81L887.651 566.678C886.652 571.532 890.874 575.858 895.75 574.979L912.087 572.032C913.505 571.777 914.81 571.089 915.824 570.064ZM1076.85 377.004L1092.24 391.649L1125.61 360.217L1109.62 344.233L1076.85 377.004ZM1128.48 357.432L1142.22 343.689C1144.96 340.956 1144.96 336.524 1142.22 333.79L1129.73 321.298L1129.21 320.778C1126.48 318.044 1122.04 318.045 1119.31 320.778L1105.57 334.52L1111.04 339.99L1128.48 357.432ZM1102.75 337.363L1070.14 370.616L1073.95 374.245L1106.8 341.404L1102.75 337.363Z" fill="#14181C" stroke="#D9480F" stroke-width="4"/>
<path d="M837.656 350.903L875.626 368.593C879.4 370.351 879.497 375.684 875.788 377.578L837.656 397.051" stroke="#D9480F" stroke-width="6"/>
<rect x="402.5" y="317.962" width="304.373" height="226.845" rx="47.5" fill="#14181C" stroke="#2E80F2" stroke-width="5"/>
<path d="M515.824 570.064L689.375 394.447L674.023 379.833L501.652 552.205L498.823 549.376L671.125 377.074L667.324 373.456L492.834 547.262C491.861 548.231 491.195 549.465 490.918 550.81L487.651 566.678C486.652 571.532 490.874 575.858 495.75 574.979L512.087 572.032C513.505 571.777 514.81 571.089 515.824 570.064ZM676.853 377.004L692.237 391.649L725.608 360.217L709.624 344.233L676.853 377.004ZM728.48 357.432L742.222 343.689C744.955 340.956 744.955 336.524 742.222 333.79L729.73 321.298L729.21 320.778C726.476 318.044 722.044 318.045 719.31 320.778L705.568 334.52L711.038 339.99L728.48 357.432ZM702.754 337.363L670.142 370.616L673.955 374.245L706.795 341.404L702.754 337.363Z" fill="#14181C" stroke="#2E80F2" stroke-width="4"/>
<path d="M437.656 350.903L475.626 368.593C479.4 370.351 479.497 375.684 475.788 377.578L437.656 397.051" stroke="#2E80F2" stroke-width="6"/>
<rect x="2.5" y="317.962" width="304.373" height="226.845" rx="47.5" fill="#14181C" stroke="#957BEA" stroke-width="5"/>
<path d="M115.824 570.064L289.375 394.447L274.023 379.833L101.652 552.205L98.8232 549.376L271.125 377.074L267.324 373.456L92.834 547.262C91.8611 548.231 91.1947 549.465 90.9178 550.81L87.6514 566.678C86.6523 571.532 90.8736 575.858 95.7499 574.979L112.087 572.032C113.505 571.777 114.81 571.089 115.824 570.064ZM276.853 377.004L292.237 391.649L325.608 360.217L309.624 344.233L276.853 377.004ZM328.48 357.432L342.222 343.689C344.955 340.956 344.955 336.524 342.222 333.79L329.73 321.298L329.21 320.778C326.476 318.044 322.044 318.045 319.31 320.778L305.568 334.52L311.038 339.99L328.48 357.432ZM302.754 337.363L270.142 370.616L273.955 374.245L306.795 341.404L302.754 337.363Z" fill="#14181C" stroke="#957BEA" stroke-width="4"/>
<path d="M37.6563 350.903L75.6255 368.593C79.4004 370.351 79.4969 375.684 75.788 377.578L37.6563 397.051" stroke="#957BEA" stroke-width="6"/>
<rect x="1202.5" y="4.9621" width="304.373" height="226.845" rx="47.5" fill="#79A9EC" stroke="#14181C" stroke-width="5"/>
<path d="M1315.82 257.064L1489.37 81.4468L1474.02 66.8331L1301.65 239.205L1298.82 236.376L1471.13 64.0743L1467.32 60.4558L1292.83 234.262C1291.86 235.231 1291.19 236.465 1290.92 237.81L1287.65 253.678C1286.65 258.532 1290.87 262.858 1295.75 261.979L1312.09 259.032C1313.51 258.777 1314.81 258.089 1315.82 257.064ZM1476.85 64.0038L1492.24 78.6488L1525.61 47.2171L1509.62 31.2326L1476.85 64.0038ZM1528.48 44.4316L1542.22 30.6895C1544.96 27.9558 1544.96 23.5237 1542.22 20.79L1529.73 8.29809L1529.21 7.77816C1526.48 5.04449 1522.04 5.04451 1519.31 7.77816L1505.57 21.5203L1511.04 26.9899L1528.48 44.4316ZM1502.75 24.3625L1470.14 57.6155L1473.95 61.245L1506.8 28.4041L1502.75 24.3625Z" fill="#79A9EC" stroke="#14181C" stroke-width="4"/>
<path d="M1237.66 37.9033L1275.63 55.5927C1279.4 57.3514 1279.5 62.6839 1275.79 64.578L1237.66 84.0508" stroke="#14181C" stroke-width="6"/>
<rect x="802.5" y="4.9621" width="304.373" height="226.845" rx="47.5" fill="#D9480F" stroke="#14181C" stroke-width="5"/>
<path d="M915.824 257.064L1089.37 81.4468L1074.02 66.8331L901.652 239.205L898.823 236.376L1071.13 64.0743L1067.32 60.4558L892.834 234.262C891.861 235.231 891.195 236.465 890.918 237.81L887.651 253.678C886.652 258.532 890.874 262.858 895.75 261.979L912.087 259.032C913.505 258.777 914.81 258.089 915.824 257.064ZM1076.85 64.0038L1092.24 78.6488L1125.61 47.2171L1109.62 31.2326L1076.85 64.0038ZM1128.48 44.4316L1142.22 30.6895C1144.96 27.9558 1144.96 23.5237 1142.22 20.79L1129.73 8.29809L1129.21 7.77816C1126.48 5.04449 1122.04 5.04451 1119.31 7.77816L1105.57 21.5203L1111.04 26.9899L1128.48 44.4316ZM1102.75 24.3625L1070.14 57.6155L1073.95 61.245L1106.8 28.4041L1102.75 24.3625Z" fill="#D9480F" stroke="#14181C" stroke-width="4"/>
<path d="M837.656 37.9033L875.626 55.5927C879.4 57.3514 879.497 62.6839 875.788 64.578L837.656 84.0508" stroke="#14181C" stroke-width="6"/>
<rect x="402.5" y="4.9621" width="304.373" height="226.845" rx="47.5" fill="#2E80F2" stroke="#14181C" stroke-width="5"/>
<path d="M515.824 257.064L689.375 81.4468L674.023 66.8331L501.652 239.205L498.823 236.376L671.125 64.0743L667.324 60.4558L492.834 234.262C491.861 235.231 491.195 236.465 490.918 237.81L487.651 253.678C486.652 258.532 490.874 262.858 495.75 261.979L512.087 259.032C513.505 258.777 514.81 258.089 515.824 257.064ZM676.853 64.0038L692.237 78.6488L725.608 47.2171L709.624 31.2326L676.853 64.0038ZM728.48 44.4316L742.222 30.6895C744.955 27.9558 744.955 23.5237 742.222 20.79L729.73 8.29809L729.21 7.77816C726.476 5.04449 722.044 5.04451 719.31 7.77816L705.568 21.5203L711.038 26.9899L728.48 44.4316ZM702.754 24.3625L670.142 57.6155L673.955 61.245L706.795 28.4041L702.754 24.3625Z" fill="#2E80F2" stroke="#14181C" stroke-width="4"/>
<path d="M437.656 37.9033L475.626 55.5927C479.4 57.3514 479.497 62.6839 475.788 64.578L437.656 84.0508" stroke="#14181C" stroke-width="6"/>
<rect x="2.5" y="4.9621" width="304.373" height="226.845" rx="47.5" fill="#957BEA" stroke="#14181C" stroke-width="5"/>
<path d="M115.824 257.064L289.375 81.4468L274.023 66.8331L101.652 239.205L98.8232 236.376L271.125 64.0743L267.324 60.4558L92.834 234.262C91.8611 235.231 91.1947 236.465 90.9178 237.81L87.6514 253.678C86.6523 258.532 90.8736 262.858 95.7499 261.979L112.087 259.032C113.505 258.777 114.81 258.089 115.824 257.064ZM276.853 64.0038L292.237 78.6488L325.608 47.2171L309.624 31.2326L276.853 64.0038ZM328.48 44.4316L342.222 30.6895C344.955 27.9558 344.955 23.5237 342.222 20.79L329.73 8.29809L329.21 7.77816C326.476 5.04449 322.044 5.04451 319.31 7.77816L305.568 21.5203L311.038 26.9899L328.48 44.4316ZM302.754 24.3625L270.142 57.6155L273.955 61.245L306.795 28.4041L302.754 24.3625Z" fill="#957BEA" stroke="#14181C" stroke-width="4"/>
<path d="M37.6563 37.9033L75.6255 55.5927C79.4004 57.3514 79.4969 62.6839 75.788 64.578L37.6563 84.0508" stroke="#14181C" stroke-width="6"/>
</svg>